
<svg viewBox="0 0 24 24" fill="none" xmlns="http://www.w3.org/2000/svg"><path d="M0 4a4 4 0 014-4h16a4 4 0 014 4v16a4 4 0 01-4 4H4a4 4 0 01-4-4V4z" fill="#fff"/><path d="M17.038 16.772c-.706 0-1.37-.274-1.868-.773L12.472 13.3a.513.513 0 00-.708 0L9.056 16.01a2.625 2.625 0 01-1.868.773h-.532l3.417 3.418a2.732 2.732 0 003.864 0l3.426-3.428h-.325zM7.193 7.219a2.625 2.625 0 011.866.777l2.702 2.714a.501.501 0 00.709.001l2.703-2.693a2.625 2.625 0 011.87-.77h.324l-3.419-3.433a2.732 2.732 0 00-3.864-.008l-3.423 3.41.532.002z" fill="#32BCAD"/><path d="M20.196 10.09l-2.067-2.076a.394.394 0 01-.147.03l-.941-.002a1.86 1.86 0 00-1.308.539l-2.703 2.693a1.29 1.29 0 01-.916.377c-.332-.001-.663-.128-.915-.38L8.497 8.555a1.86 1.86 0 00-1.306-.544L6.034 8.01a.392.392 0 01-.14-.029l-2.082 2.075a2.733 2.733 0 00-.008 3.865l2.075 2.084a.394.394 0 01.139-.028l1.157.002a1.86 1.86 0 001.308-.539l2.713-2.702c.49-.489 1.343-.487 1.831.004l2.692 2.703c.343.345.82.543 1.306.544l.941.002c.052 0 .102.012.147.03l2.075-2.067a2.734 2.734 0 00.008-3.865z" fill="#32BCAD"/></svg>